<svg xmlns="http://www.w3.org/2000/svg" version="1.1" xmlns:xlink="http://www.w3.org/1999/xlink" xmlns:svgjs="http://svgjs.dev/svgjs" width="1442" height="560" preserveAspectRatio="none" viewBox="0 0 1442 560"><g mask="url(&quot;#SvgjsMask1020&quot;)" fill="none"><rect width="1442" height="560" x="0" y="0" fill="#0e2a47"></rect><path d="M 0,187 C 57.8,164.6 173.4,59 289,75 C 404.6,91 462.4,263.8 578,267 C 693.6,270.2 751.4,113 867,91 C 982.6,69 1041,171.8 1156,157 C 1271,142.2 1384.8,45 1442,17L1442 560L0 560z" fill="#184a7e"></path><path d="M 0,523 C 41.2,478 123.6,310.6 206,298 C 288.4,285.4 329.6,463 412,460 C 494.4,457 535.6,290.8 618,283 C 700.4,275.2 741.6,400.6 824,421 C 906.4,441.4 947.6,373.4 1030,385 C 1112.4,396.6 1153.6,477.6 1236,479 C 1318.4,480.4 1400.8,409.4 1442,392L1442 560L0 560z" fill="#2264ab"></path></g><defs><mask id="SvgjsMask1020"><rect width="1442" height="560" fill="#ffffff"></rect></mask></defs></svg>